<?xml version="1.0" standalone="no"?>
<!DOCTYPE svg PUBLIC "-//W3C//DTD SVG 20010904//EN"
 "http://www.w3.org/TR/2001/REC-SVG-20010904/DTD/svg10.dtd">
<svg version="1.0" xmlns="http://www.w3.org/2000/svg"
 width="512.000000pt" height="512.000000pt" viewBox="0 0 512.000000 512.000000"
 preserveAspectRatio="xMidYMid meet">

<g transform="translate(0.000000,512.000000) scale(0.100000,-0.100000)"
fill="#000000" stroke="none">
<path d="M856 5099 c-22 -17 -26 -28 -24 -57 3 -34 13 -44 143 -145 187 -144
215 -160 250 -147 53 20 69 65 39 108 -26 38 -334 262 -359 262 -12 0 -34 -10
-49 -21z"/>
<path d="M2385 5109 c-96 -13 -247 -52 -339 -89 -467 -185 -782 -555 -888
-1043 -32 -147 -32 -426 1 -577 38 -176 112 -356 205 -494 25 -38 45 -70 44
-71 -2 -1 -55 -7 -118 -14 -156 -16 -378 -65 -437 -95 -26 -13 -64 -40 -82
-60 -32 -33 -40 -36 -90 -36 -105 0 -214 -71 -269 -175 l-27 -50 -3 -605 c-1
-333 0 -615 3 -628 13 -52 109 -61 134 -13 8 13 11 210 11 601 0 465 3 587 14
613 13 31 78 97 96 97 4 0 14 2 22 5 11 4 13 -164 13 -979 l0 -985 21 -28 c53
-70 110 -78 274 -39 261 63 528 92 770 83 229 -9 347 -26 619 -89 200 -46 195
-46 421 6 282 64 414 80 690 80 266 0 406 -16 635 -70 153 -37 231 -41 272
-15 18 11 40 32 50 48 17 26 18 79 18 1010 0 541 1 983 3 983 1 0 17 -6 35
-14 43 -17 95 -78 102 -118 3 -18 5 -454 3 -968 l-3 -935 -27 -51 c-49 -93
-146 -154 -244 -154 -23 0 -84 11 -135 25 -217 59 -319 76 -490 82 -252 9
-403 -15 -766 -118 -94 -27 -215 -56 -268 -65 -124 -21 -187 -13 -428 56 -357
102 -514 130 -723 130 -165 0 -292 -18 -499 -70 -86 -22 -176 -40 -199 -40
-98 0 -195 61 -244 154 -27 51 -27 53 -32 297 -5 225 -7 249 -24 268 -24 27
-66 27 -100 0 l-26 -20 0 -244 c0 -215 2 -250 20 -308 27 -87 92 -173 170
-225 126 -85 229 -94 445 -39 221 55 353 70 567 64 210 -6 268 -17 556 -102
390 -116 438 -115 952 30 359 101 617 109 945 28 232 -57 365 -55 492 7 77 38
153 119 185 198 l23 57 0 1000 0 1000 -27 50 c-55 104 -164 175 -269 175 -50
0 -58 3 -90 36 -18 20 -56 47 -82 60 -59 30 -281 79 -437 95 -63 7 -116 14
-118 15 -2 1 12 24 31 51 93 129 180 335 218 513 32 149 33 430 1 572 -42 190
-114 364 -210 507 -84 124 -112 146 -167 125 -15 -6 -45 -53 -45 -72 0 -5 29
-52 64 -103 81 -120 129 -215 171 -342 124 -372 65 -786 -158 -1117 -65 -96
-147 -184 -272 -291 -156 -134 -220 -216 -280 -366 l-22 -54 -484 0 -484 0
-12 36 c-6 19 -31 72 -54 117 -36 69 -61 100 -147 183 -324 311 -362 356 -447
524 -45 90 -98 250 -116 351 -20 108 -17 355 4 462 54 268 173 485 369 674
276 265 675 400 1046 354 198 -25 399 -102 563 -214 88 -61 126 -69 159 -36
12 12 20 33 20 55 0 31 -7 40 -53 76 -76 59 -228 144 -322 180 -221 86 -470
117 -700 88z m-829 -2440 c10 -12 64 -59 120 -105 140 -116 220 -226 254 -353
11 -41 10 -48 -15 -93 -17 -31 -29 -72 -32 -108 l-6 -59 -141 6 c-151 6 -369
-8 -531 -33 -117 -19 -128 -24 -144 -63 -10 -24 -10 -34 3 -60 22 -42 49 -46
174 -27 204 31 493 40 660 20 l43 -5 -17 -27 c-10 -15 -23 -45 -29 -67 l-12
-40 -124 3 c-211 6 -605 -30 -666 -60 -31 -15 -46 -58 -34 -91 18 -48 45 -52
188 -31 100 15 185 19 393 19 l265 0 57 -57 c43 -43 69 -61 104 -70 42 -12 65
-31 52 -44 -3 -3 -34 0 -70 5 -118 19 -399 29 -553 20 -191 -11 -374 -36 -403
-55 -49 -32 -48 -103 3 -126 20 -9 53 -8 153 7 249 35 639 31 874 -10 75 -14
84 -18 134 -65 54 -52 133 -95 192 -106 l32 -6 0 -208 0 -208 -62 15 c-124 29
-252 54 -352 69 -141 21 -523 30 -683 15 -162 -15 -411 -60 -535 -97 -17 -5
-18 45 -18 948 0 908 1 955 19 994 10 23 33 51 50 63 35 25 196 64 356 86 235
31 276 32 301 4z m2194 11 c217 -23 425 -68 473 -102 16 -12 38 -39 48 -62 18
-39 19 -86 19 -994 0 -903 -1 -953 -17 -948 -54 17 -265 60 -378 78 -169 26
-524 35 -702 19 -162 -15 -411 -60 -535 -97 -17 -5 -18 9 -18 203 l0 208 59
17 c32 10 80 32 107 51 58 39 118 51 319 68 118 9 144 14 163 32 31 28 29 77
-3 107 -25 24 -25 24 -163 13 -75 -6 -138 -10 -139 -9 -1 1 4 22 11 46 12 40
17 45 61 57 68 20 148 102 169 173 9 30 16 65 16 80 0 42 -28 123 -53 154
l-24 29 33 54 c53 89 55 174 6 266 l-26 49 24 69 c37 110 108 208 213 297 50
42 110 94 132 114 45 42 54 44 205 28z m-699 -609 c41 -42 41 -106 0 -150
l-29 -31 -462 0 -462 0 -29 31 c-41 44 -41 108 0 150 l29 29 462 0 462 0 29
-29z"/>
<path d="M1395 990 c-132 -14 -284 -39 -306 -51 -29 -15 -42 -57 -29 -90 20
-48 44 -53 166 -35 282 42 593 43 854 1 182 -29 205 -30 229 -6 30 30 28 84
-3 109 -68 53 -643 99 -911 72z"/>
<path d="M3555 1751 c-86 -53 -94 -84 -95 -381 0 -139 5 -261 10 -282 13 -44
51 -93 89 -112 40 -21 378 -116 412 -116 63 0 135 52 158 113 17 45 15 559 -3
600 -29 68 -62 86 -258 143 -200 59 -264 66 -313 35z m270 -179 l160 -47 3
-249 c1 -137 -2 -254 -6 -258 -8 -8 -345 82 -359 96 -9 9 -17 407 -9 459 6 40
11 47 29 46 12 0 94 -21 182 -47z"/>
<path d="M3040 999 c-98 -11 -201 -30 -221 -40 -26 -13 -42 -61 -30 -92 18
-46 47 -52 163 -34 57 9 149 19 206 23 79 5 109 11 128 26 32 26 33 76 1 106
-20 19 -34 22 -98 21 -41 -1 -108 -5 -149 -10z"/>
<path d="M4024 4993 c-179 -136 -200 -160 -174 -207 7 -14 26 -30 43 -36 38
-13 50 -6 236 134 144 109 161 127 161 170 0 29 -42 66 -75 66 -13 0 -92 -53
-191 -127z"/>
<path d="M494 4508 c-22 -10 -44 -47 -44 -73 0 -8 10 -25 23 -39 19 -22 49
-30 228 -66 227 -45 247 -44 269 11 14 34 6 65 -24 84 -18 12 -403 97 -425 94
-3 0 -16 -5 -27 -11z"/>
<path d="M4376 4477 c-180 -38 -201 -45 -219 -68 -27 -37 -16 -84 24 -105 28
-14 43 -12 237 26 180 36 210 44 230 66 25 28 27 42 11 77 -11 24 -48 48 -72
46 -7 0 -102 -20 -211 -42z"/>
<path d="M1927 3978 c-24 -19 -37 -63 -37 -129 0 -98 37 -142 106 -125 68 17
75 234 9 260 -26 10 -60 7 -78 -6z"/>
<path d="M3182 3983 c-40 -16 -57 -149 -28 -218 24 -58 102 -61 131 -5 18 34
20 133 4 179 -16 44 -60 63 -107 44z"/>
<path d="M680 3834 c-230 -93 -264 -124 -207 -190 17 -19 33 -27 53 -26 16 1
115 35 219 77 234 93 266 122 214 189 -32 40 -72 33 -279 -50z"/>
<path d="M4161 3884 c-52 -67 -20 -96 214 -189 105 -42 203 -76 219 -77 20 -1
36 7 53 26 57 67 24 97 -212 191 -104 41 -204 75 -222 75 -22 0 -38 -8 -52
-26z"/>
<path d="M2377 3852 c-10 -10 -17 -35 -17 -54 0 -30 7 -43 46 -76 109 -96 269
-96 378 0 39 34 46 45 46 77 0 47 -24 71 -72 71 -24 0 -42 -8 -58 -25 -52 -55
-144 -57 -204 -5 -40 35 -93 40 -119 12z"/>
</g>
</svg>
